<svg id="Layer_1" data-name="Layer 1" xmlns="http://www.w3.org/2000/svg" xmlns:xlink="http://www.w3.org/1999/xlink" viewBox="0 0 389 457"><defs><style>.cls-1{fill:url(#linear-gradient);}.cls-2{fill:none;}.cls-3{fill:#d21502;}.cls-4{fill:#fbf5df;}.cls-11,.cls-12,.cls-13,.cls-4,.cls-6,.cls-8,.cls-9{stroke:#123e90;}.cls-11,.cls-12,.cls-4,.cls-6,.cls-7,.cls-9{stroke-miterlimit:10;}.cls-11,.cls-12,.cls-13,.cls-4,.cls-6,.cls-7,.cls-8,.cls-9{stroke-width:2px;}.cls-5{clip-path:url(#clip-path);}.cls-6{fill:#fffbf6;}.cls-7{fill:#fff;stroke:#004288;}.cls-13,.cls-8,.cls-9{fill:#fff;}.cls-8{stroke-linecap:round;}.cls-13,.cls-8{stroke-linejoin:round;}.cls-10{clip-path:url(#clip-path-2);}.cls-11{fill:#fa3833;}.cls-12{fill:#123e90;}</style><linearGradient id="linear-gradient" x1="42.81" y1="332.4" x2="285.19" y2="332.4" gradientUnits="userSpaceOnUse"><stop offset="0" stop-color="#FF0000"/><stop offset="1" stop-color="#D21502"/></linearGradient><clipPath id="clip-path"><path class="cls-1" d="M42.81,244.93v53.74A121.19,121.19,0,0,0,164,419.86h0A121.19,121.19,0,0,0,285.19,298.67V244.93Z"/></clipPath><clipPath id="clip-path-2"><rect class="cls-2" x="61.57" y="168.35" width="211.78" height="86.4"/></clipPath></defs><title>NRC</title><path class="cls-3" d="M339.41,100.94l-244-4.12A4.79,4.79,0,0,1,90.72,92h0a4.79,4.79,0,0,1,4.79-4.75l244-.43a7.06,7.06,0,0,1,7.08,7.11h0A7.08,7.08,0,0,1,339.41,100.94Z"/><polygon class="cls-4" points="328.45 86.83 271.27 86.93 271.17 99.79 328.35 100.75 328.45 86.83"/><path class="cls-3" d="M336.42,43.49,96.27,86.73a4.8,4.8,0,0,1-5.56-3.83h0a4.79,4.79,0,0,1,3.78-5.59l239.3-47.7a7.06,7.06,0,0,1,8.32,5.61h0A7.06,7.06,0,0,1,336.42,43.49Z"/><polygon class="cls-4" points="322.94 31.77 266.85 42.95 269.25 55.58 325.53 45.45 322.94 31.77"/><path class="cls-1" d="M42.81,244.93v53.74A121.19,121.19,0,0,0,164,419.86h0A121.19,121.19,0,0,0,285.19,298.67V244.93Z"/><g class="cls-5"><rect class="cls-6" x="38.13" y="269.53" width="251.73" height="43.88"/><path class="cls-7" d="M42.43,281.91H70v17.2a1.15,1.15,0,0,1-1.15,1.15H52.75a1.14,1.14,0,0,1-1.14-1.15v-9.17"/><path class="cls-7" d="M68.81,281.91h35.55v17.2a1.14,1.14,0,0,1-1.14,1.15H87.16A1.15,1.15,0,0,1,86,299.11v-9.17"/><path class="cls-7" d="M103.22,281.91h35.55v17.2a1.14,1.14,0,0,1-1.15,1.15H121.57a1.14,1.14,0,0,1-1.15-1.15v-9.17"/><path class="cls-7" d="M137.62,281.91h35.55v17.2a1.14,1.14,0,0,1-1.14,1.15H156a1.15,1.15,0,0,1-1.15-1.15v-9.17"/><path class="cls-7" d="M172,281.91h35.55v17.2a1.14,1.14,0,0,1-1.15,1.15H190.38a1.14,1.14,0,0,1-1.15-1.15v-9.17"/><path class="cls-7" d="M206.43,281.91H242v17.2a1.15,1.15,0,0,1-1.15,1.15H224.78a1.14,1.14,0,0,1-1.14-1.15v-9.17"/><path class="cls-7" d="M276.39,281.91v17.2a1.14,1.14,0,0,1-1.14,1.15H259.19a1.15,1.15,0,0,1-1.15-1.15v-9.17"/><line class="cls-7" x1="240.84" y1="281.91" x2="291.88" y2="281.91"/></g><path class="cls-4" d="M114.31,407.33h99.37a9.19,9.19,0,0,1,9.19,9.19v10.11a0,0,0,0,1,0,0H105.13a0,0,0,0,1,0,0V416.52A9.19,9.19,0,0,1,114.31,407.33Z"/><rect class="cls-4" x="42.81" y="230.02" width="242.37" height="25.89" rx="11.29"/><path class="cls-8" d="M273.81,255.92c0-.7,0-1.4,0-2.11a109.84,109.84,0,1,0-219.68,0c0,.71,0,1.41,0,2.11Z"/><path class="cls-4" d="M262.79,255.92c0-.7,0-1.4,0-2.11a98.84,98.84,0,0,0-197.68,0c0,.71,0,1.41,0,2.11Z"/><path class="cls-9" d="M251.75,255.92c0-.7.06-1.4.06-2.11a87.81,87.81,0,0,0-175.62,0c0,.71,0,1.41.06,2.11Z"/><path class="cls-4" d="M241.61,255.92c0-.7.06-1.4.06-2.11a77.67,77.67,0,0,0-155.34,0c0,.71,0,1.41.06,2.11Z"/><path class="cls-9" d="M229.89,255.92c0-.7.06-1.4.06-2.11a66,66,0,0,0-131.9,0c0,.71,0,1.41.06,2.11Z"/><path class="cls-9" d="M229.89,255.92c0-.7.06-1.4.06-2.11a66,66,0,0,0-131.9,0c0,.71,0,1.41.06,2.11Z"/><g class="cls-10"><path class="cls-6" d="M194.48,228.2A36.37,36.37,0,0,0,254,270c16-22.76,12.81-52.76-.74-62.27S210.07,206,194.48,228.2Z"/><circle class="cls-11" cx="224.25" cy="249.09" r="21.37" transform="translate(-83.83 117.1) rotate(-24.81)"/><path class="cls-6" d="M88.25,217h33a20.47,20.47,0,0,1,20.47,20.47v4.49A10.09,10.09,0,0,1,131.66,252H77.87a10.09,10.09,0,0,1-10.09-10.09v-4.49A20.47,20.47,0,0,1,88.25,217Z" transform="translate(-86.34 62.9) rotate(-24)"/><path class="cls-12" d="M96.56,242.16c-13.62,6.06-6,17.81-6,17.81l11.65-5.19Z"/><path class="cls-12" d="M115.42,233.76C129,227.69,133.21,241,133.21,241L121,246.39Z"/><path class="cls-13" d="M104.8,235.8h22.08a0,0,0,0,1,0,0v38.84a8.3,8.3,0,0,1-8.3,8.3H113.1a8.3,8.3,0,0,1-8.3-8.3V235.8A0,0,0,0,1,104.8,235.8Z" transform="translate(-95.49 69.55) rotate(-24)"/></g><rect class="cls-4" x="136.87" y="87.14" width="10.85" height="168.77"/><rect class="cls-9" x="147.72" y="87.14" width="10.85" height="168.77"/><rect class="cls-4" x="158.57" y="87.14" width="10.85" height="168.77"/><rect class="cls-9" x="169.43" y="87.14" width="10.85" height="168.77"/><rect class="cls-4" x="180.28" y="87.14" width="10.85" height="168.77"/></svg>