<svg xmlns="http://www.w3.org/2000/svg" xmlns:xlink="http://www.w3.org/1999/xlink" viewBox="0 0 1920 601"><defs><style>.cls-1{fill:none;}.cls-2{isolation:isolate;}.cls-3{clip-path:url(#clip-path);}.cls-13,.cls-14,.cls-17,.cls-18,.cls-19,.cls-20,.cls-21,.cls-22,.cls-4,.cls-5{opacity:0.25;}.cls-4,.cls-5{mix-blend-mode:overlay;}.cls-4{fill:url(#linear-gradient);}.cls-5{fill:url(#linear-gradient-2);}.cls-6{fill:url(#linear-gradient-3);}.cls-7{fill:url(#linear-gradient-4);}.cls-8{fill:url(#linear-gradient-5);}.cls-9{fill:url(#linear-gradient-6);}.cls-10{opacity:0.76;fill:url(#radial-gradient);}.cls-10,.cls-16,.cls-23{mix-blend-mode:screen;}.cls-11{clip-path:url(#clip-path-2);}.cls-12{fill:url(#linear-gradient-7);}.cls-13,.cls-14,.cls-17,.cls-18,.cls-19,.cls-20,.cls-21,.cls-22{mix-blend-mode:multiply;}.cls-13{fill:url(#linear-gradient-8);}.cls-14{fill:url(#linear-gradient-9);}.cls-15{fill:url(#linear-gradient-10);}.cls-16,.cls-23{opacity:0.45;}.cls-16{fill:url(#linear-gradient-11);}.cls-17{fill:url(#linear-gradient-12);}.cls-18{fill:url(#linear-gradient-13);}.cls-19{fill:url(#linear-gradient-14);}.cls-20{fill:url(#linear-gradient-15);}.cls-21{fill:url(#linear-gradient-16);}.cls-22{fill:url(#linear-gradient-17);}.cls-23{fill:url(#linear-gradient-18);}.cls-24{fill:url(#linear-gradient-19);}.cls-25{fill:url(#linear-gradient-20);}.cls-26{fill:url(#linear-gradient-21);}</style><clipPath id="clip-path"><rect class="cls-1" x="-1937" y="-675" width="1917" height="1276"/></clipPath><linearGradient id="linear-gradient" x1="14.94" y1="724.7" x2="-1936.05" y2="227.03" gradientUnits="userSpaceOnUse"><stop offset="0" stop-color="#fff"/><stop offset="1" stop-color="#fff"/></linearGradient><linearGradient id="linear-gradient-2" x1="-0.84" y1="340.66" x2="-1853.96" y2="-132.05" xlink:href="#linear-gradient"/><linearGradient id="linear-gradient-3" x1="-1267.63" y1="333.68" x2="-371.22" y2="207.04" gradientUnits="userSpaceOnUse"><stop offset="0" stop-color="#81c2cd"/><stop offset="1" stop-color="#b4ded9"/></linearGradient><linearGradient id="linear-gradient-4" x1="-937.53" y1="438.89" x2="-719.55" y2="62.65" gradientUnits="userSpaceOnUse"><stop offset="0" stop-color="#6185bf"/><stop offset="1" stop-color="#86cfcf"/></linearGradient><linearGradient id="linear-gradient-5" x1="-983.61" y1="409.94" x2="-971.75" y2="676.06" gradientUnits="userSpaceOnUse"><stop offset="0" stop-color="#2d5593"/><stop offset="0.98" stop-color="#77b1bb"/></linearGradient><linearGradient id="linear-gradient-6" x1="-364.2" y1="605.57" x2="-208.63" y2="26.78" gradientUnits="userSpaceOnUse"><stop offset="0" stop-color="#000e45"/><stop offset="1" stop-color="#19235b"/></linearGradient><radialGradient id="radial-gradient" cx="-56.54" cy="430.74" r="1097.33" gradientTransform="translate(62.29 50.65) scale(0.88 0.68)" gradientUnits="userSpaceOnUse"><stop offset="0" stop-color="#b3fff4"/><stop offset="1"/></radialGradient><clipPath id="clip-path-2"><rect class="cls-1" x="2" y="-675" width="1917" height="1276"/></clipPath><linearGradient id="linear-gradient-7" x1="671.37" y1="333.68" x2="1567.78" y2="207.04" xlink:href="#linear-gradient-3"/><linearGradient id="linear-gradient-8" x1="841.71" y1="407.88" x2="1100.78" y2="170.87" xlink:href="#linear-gradient-3"/><linearGradient id="linear-gradient-9" x1="1008.12" y1="387.38" x2="1205.82" y2="169.9" xlink:href="#linear-gradient-3"/><linearGradient id="linear-gradient-10" x1="1054.31" y1="172.07" x2="1401.25" y2="46.09" gradientUnits="userSpaceOnUse"><stop offset="0" stop-color="#84d2d4"/><stop offset="1" stop-color="#d3f1ef"/></linearGradient><linearGradient id="linear-gradient-11" x1="1807.33" y1="180.73" x2="1289.85" y2="202.5" gradientUnits="userSpaceOnUse"><stop offset="0" stop-color="#fff" stop-opacity="0"/><stop offset="1" stop-color="#fff"/></linearGradient><linearGradient id="linear-gradient-12" x1="1191.2" y1="101.02" x2="1221.3" y2="58.73" xlink:href="#linear-gradient-3"/><linearGradient id="linear-gradient-13" x1="1232.67" y1="100.24" x2="1246.45" y2="80.88" xlink:href="#linear-gradient-3"/><linearGradient id="linear-gradient-14" x1="1265.62" y1="124.12" x2="1291.71" y2="87.47" xlink:href="#linear-gradient-3"/><linearGradient id="linear-gradient-15" x1="230.28" y1="507.83" x2="1210.11" y2="152.03" xlink:href="#linear-gradient-3"/><linearGradient id="linear-gradient-16" x1="1265" y1="344.06" x2="1315.02" y2="325.89" xlink:href="#linear-gradient-3"/><linearGradient id="linear-gradient-17" x1="1147.54" y1="286.54" x2="1202.88" y2="208.79" xlink:href="#linear-gradient-3"/><linearGradient id="linear-gradient-18" x1="1746.96" y1="230.69" x2="1460.38" y2="242.74" xlink:href="#linear-gradient-11"/><linearGradient id="linear-gradient-19" x1="317.26" y1="416.77" x2="248.7" y2="563.12" gradientUnits="userSpaceOnUse"><stop offset="0" stop-color="#7d99c9"/><stop offset="1" stop-color="#acd9d9"/></linearGradient><linearGradient id="linear-gradient-20" x1="1001.47" y1="438.89" x2="1219.45" y2="62.65" xlink:href="#linear-gradient-4"/><linearGradient id="linear-gradient-21" x1="955.39" y1="409.94" x2="967.25" y2="676.06" xlink:href="#linear-gradient-5"/></defs><title>NRC</title><g class="cls-2"><g id="Layer_1" data-name="Layer 1"><g id="Whole"><g class="cls-3"><path class="cls-4" d="M-2063,39s614.43,166,843,198.57,768.78,80,866.73,77.05,374-8.89,374-8.89L47.45,679.12l-2057-50.38Z"/><path class="cls-5" d="M-2024.4-115.12S-1567.29,71.58-1027.06,122-367,177.14-302.8,188.58,32.6,207.91,32.6,207.91l8.91,44.45s-715.35-65.2-819.24-59.27-649-104-792-118.67S-2033.3-55.85-2033.3-55.85Z"/><path class="cls-6" d="M.29,383.08-1101.26,528l-459.11-21.08S-1176.46,323.83-1101.26,283c41.68-22.64,155.89-97.87,251-161.11,76.51-50.86,140.66-94,144.78-95.75,9.22-4,22.41,5.28,27.7,3.95s13.19-9.21,19.79-6.58,15.82,9.21,26.37,3.95,30.34-17.12,39.57-15.82c5.65.82,52.09,39.91,94.93,75.34,27.33,22.58,53.19,43.71,66,52.44C-398.13,161.8.29,383.08.29,383.08Z"/><path class="cls-7" d="M-1958.11,402.52s13.85,4.94,18.8,4,7.92-1,10.88,3.95,8.91,10.87,8.91,10.87,12.86,4.94,16.82,6.91,16.16,9.92,16.16,9.92,9.56,1.94,14.51,8.85,23.75,17.79,23.75,17.79,21.77,6.91,29.68,11.85,27.7,15.81,27.7,15.81l21.77,5.92,22.76,13.83s16.82,5.93,24.73,5.93,29.69-1,29.69-1,9.89,8.89,16.82,9.88,22.75,4.94,22.75,4.94l26.72,12.84s39.57-2,49.47-3.95,8.9-2,20.78-6.91,21.76-5.93,31.66-7.91,20.78-1,25.72-4,12.86-8.89,21.77-7.9,23.75,0,36.61-7.9,45.51-23.71,59.36-29.64,66.29-17.78,66.29-17.78,31.67-12.84,38.59-15.81,24.74-7.9,32.65-8.89a298.19,298.19,0,0,0,38.59-7.9c13.85-4,39.58-13.83,39.58-13.83l22.75-1,16.82-3,23.75-1s39.58-1,42.54-3a53.82,53.82,0,0,1,7.92-4l19.79-4,29.68-13.83,53.43-6.91s32.65,2,45.51,0S-846,363-846,363l54.42-4s72.23,10.87,94,10.87,67.28-2,67.28-2,35.62,2,49.47-9.87,22.76-16.8,44.53-22.73,42.54-3,42.54-3l27.71,8.89,118.73,1,68.27-15.81s25.81-4.66,51,2.12,39,13.69,61.79,16.65,45.51-4,54.42-1,35.42,19.3,58.17,23.25S3.91,367,8.86,368.93-3,409.44-3,409.44V623.8H-1960.09Z"/><path class="cls-8" d="M-1953.49,466.07s31.66,11.86,39.58,13.17,33,14.49,33,14.49a136.22,136.22,0,0,1,18.47,1.32c7.91,1.32,11.87,1.32,15.83,5.27s13.19,7.9,13.19,7.9,9.23,1.32,14.51,2.64a110.08,110.08,0,0,1,11.87,3.95l14.52-2.64L-1777,525l12.21,3,21.11,5.27s17.15,7.9,22.42,7.9h47.5l30.34,11.86,31.66,6.58s22.52,8.61,31.66,11.86,34.3,1.31,34.3,1.31,96.3-7.9,120-13.17,31.66-5.27,47.49-7.9,26.39-1.32,36.94-4,22.43-9.22,31.66-9.22,14.51,1.31,18.47-1.32,11.87-9.22,11.87-9.22a23.41,23.41,0,0,0,21.11,3.95l15.83-22.39,1.32,13.17,11.87-4s14.52-7.9,19.79-7.9,13.2,6.58,13.2,6.58l9.23-1.31,18.47-6.59,18.47-1.32s73.87-4,91-10.53,40.9-18.45,48.82-21.08,17.15-13.17,17.15-13.17l9.23-2.64,9.24,2.64,15.83-5.27h11.87s11.87-11.85,15.83-11.85,9.23,6.58,9.23,6.58l10.56,1.32,19.79-2.64,33,4s10.55,2.63,14.51-1.32l9.23-9.22,9.24,7.9,9.23-15.8,7.92,9.22,9.23-4c6.6-3.95,2.64-17.12,10.56-14.48s10.55,6.58,10.55,6.58l10.55-5.27c5.28-6.58,5.7-18,9.24-15.8,10.55,6.58,17.15-3.95,17.15-3.95s9.23-13.18,14.51-7.91l13.19,13.17,22.43-2.63s66,2.63,76.51,1.32S-598.65,416-592,416s17.15,1.32,17.15,1.32,7.92-6.59,13.19-6.59,6.6,2.64,10.56,6.59,14.51,2.63,14.51,2.63a187.47,187.47,0,0,0,19.79,1.32c9.23,0,26.38,2.63,26.38,2.63h19.79s9.23-15.8,15.83-11.85,1.32,9.22,6.6,10.54,15.83,2.63,15.83,2.63l24.33,2.45s22.2-1.84,29-.65,20.53.84,25.81-1.8l15.83-7.9,15.83,5.27s10.56,3.95,14.51,2.63,6.6-1.32,13.2-5.27,9.23-13.17,14.51-10.53l10.55,5.26s11.87,7.91,22.43,5.27,19.79-14.49,29-15.8,27.7-2.64,27.7-2.64,10.56,2.64,14.52,4,14.51-1.31,14.51-1.31l17.15-3.95,13.19,3.95,10.55-3.95c10.56-1.32,15.83-2.64,21.11-1.32s6.6,4,15.83,1.32a69.62,69.62,0,0,0,17.15-7.91s1.32,2.64,10.56,5.27,10.55,0,17.15-1.32S-20.82,395-16.87,395-5,413.39-5,413.39L5.56,641.26H-1952.17Z"/><path class="cls-9" d="M-741.12,623.94s109.49-24.83,124-32.74,23.74-17.12,42.21-18.44,56.73-2.63,63.32-4,14.51-9.22,42.22-9.22,62,9.22,92.34,10.54,55.41-17.12,73.88-26.34,31.66-18.44,58-23.71,64.64-18.44,113.45-19.76,108.18,0,108.18,0L1.6,510.86-5,653.11Z"/><ellipse class="cls-10" cx="12.32" cy="342.26" rx="969.81" ry="742.88"/></g></g><g id="Fuji"><g class="cls-11"><path class="cls-12" d="M1939.29,383.08,837.74,528,378.63,506.91S762.54,323.83,837.74,283c41.68-22.64,155.89-97.87,251-161.11,76.51-50.86,140.66-94,144.78-95.75,9.22-4,22.41,5.28,27.7,3.95s13.19-9.21,19.79-6.58,15.82,9.21,26.37,3.95,30.34-17.12,39.57-15.82c5.65.82,52.09,39.91,94.93,75.34,27.33,22.58,53.19,43.71,66,52.44C1540.87,161.8,1939.29,383.08,1939.29,383.08Z"/><path class="cls-13" d="M900.55,370.37l24.25-36,146.43-147.52S932.71,296.16,919.52,309.33,732.19,435.78,732.19,435.78l113.91-20.2C826.06,432,810,445,810,445L909,418.66l34.3-60.59,19.79-42.15s-22.43,19.75-52.77,46.1C907.37,364.55,904.09,367.36,900.55,370.37Z"/><path class="cls-14" d="M952.5,422.61s63.33-76.4,85.75-101.42,56.73-73.77,77.84-98.79,59.36-81.67,59.36-81.67S1128,230.3,1101.57,268.5s-40.89,64.54-47.49,85.61-21.11,68.5-21.11,68.5Z"/><path class="cls-15" d="M1397.73,92.34c4,8.88,11.88,31.59,11.88,31.59s-20.78-21.72-30.67-33.59-21.77-21.71-35.63-32.58-9.89,8.88-10.86,18.75-11.89,21.75-11.89,21.75l-13.85-7.92s-6.93,18.79-6.93,34.58c0,11.44-4.11,20.78-6.77,21.75-1,.38-1.84-.49-2.12-3a55.85,55.85,0,0,0-2.84-11.13c-2.63-7.58-6.47-15.64-9-19.5-4-5.94-10.89-12.86-25.71-13.83-11.94-.79-13,5.44-15.54,5.85a3.07,3.07,0,0,1-2.28-.92c-4.62-3.7-3.19-9.11-3-9.8l0-.08-24.74,2L1191,105.17l0,0c.29-.92,4.94-15.85,4.94-18.73s-30.67,8.91-53.45,17.79c-11.4,4.46-34,11.66-53.73,17.71,76.51-50.86,140.66-94,144.78-95.75,9.22-4,22.41,5.28,27.7,3.95s13.19-9.21,19.79-6.58,15.82,9.21,26.37,3.95,30.34-17.12,39.57-15.82c5.65.82,52.09,39.91,94.93,75.34-7.62-2.81-14.93-5.49-20.4-7.48-18.78-6.92-25.71-12.86-36.6-18.78S1393.79,83.43,1397.73,92.34Z"/><path class="cls-16" d="M1348.27,16.26c5.28,3.95,139.67,113,150.89,121.51s101.41,60.59,109.33,65.2,177.76,101.09,185,105,110.15,57.3,110.15,57.3l1.2-1.37c-97.46-54.24-369.94-206.18-397-224.52-12.83-8.73-38.69-29.86-66-52.44-42.84-35.43-89.28-74.52-94.93-75.34-3.48-.49-8.46.89-13.87,3.08C1339.23,14.3,1345.76,14.38,1348.27,16.26Z"/><path class="cls-17" d="M1235.76,43.31l-19.07,29.91L1191,105.12c.29-.92,4.94-15.85,4.94-18.73,0,0,18.12-18.43,22.41-23.71C1222.46,57.63,1234.84,44.31,1235.76,43.31Z"/><path class="cls-18" d="M1246.34,69c-.36,1.4-6.26,24-6.9,25.92s-.39,7.94-1.69,10.14a3.07,3.07,0,0,1-2.28-.92c-4.62-3.7-3.19-9.11-3-9.8l0-.08s4.29-9.88,6.26-13.5C1240.64,77.38,1245.72,69.9,1246.34,69Z"/><path class="cls-19" d="M1293,146.67c-1,.38-1.84-.49-2.12-3a55.85,55.85,0,0,0-2.84-11.13,70.82,70.82,0,0,0-1.79-10.62c-2.3-8.24-4.6-14.82-8.23-17.78a97.08,97.08,0,0,1-8.59-8.55s2-11.54,1.67-19.12,2.3-24.34,2.3-24.34,3,19.75,4.62,24.34,4.27,11.54,4.27,11.54l1-14.83,3.63,21.41s4.62,23.71,5,29C1292.12,127.73,1293.19,140.29,1293,146.67Z"/><path class="cls-20" d="M996,219.76c25.06-15.8,118.73-96.15,141.15-109.32,20.38-12,87.56-73.93,99.69-85.17a12.16,12.16,0,0,0-2.87.7l-2.36,1.21c-11.64,7-72,47.53-142.92,94.71-95.1,63.24-209.31,138.47-251,161.11-75.2,40.83-459.11,223.91-459.11,223.91l94.3,4.33c94.71-21.39,192-43.85,192-43.85l67.28-71.13s73.88-52.68,104.22-73.76,92.35-67.17,92.35-67.17l-22.43,42.15S971,235.57,996,219.76Z"/><path class="cls-21" d="M1295.5,261.91s10.55,61.91,13.19,76.4S1320.57,395,1320.57,395l-29,1.31s5.28-51.37,4-67.17S1295.5,261.91,1295.5,261.91Z"/><path class="cls-22" d="M1152.36,297.81l23.75-63.23,40.57-63.22s-24.74,63.22-26.72,66.19S1152.36,297.81,1152.36,297.81Z"/><path class="cls-23" d="M1484.81,150.61s135.55,74.09,152.37,82,163.25,86.93,163.25,86.93-152.37-76.07-167.21-84S1484.81,150.61,1484.81,150.61Z"/><path class="cls-24" d="M-22.41,362c4-2.64,29,0,38.26,2.63s14.51,10.54,19.79,13.17,7.92,7.91,21.11,10.54,17.53-3.33,23.74,7.9S88.41,412.07,96.32,416s22.43,13.17,31.67,18.44,40.89,25,40.89,25S190,470,196.59,474s27.7,11.85,36.93,14.48,14.52-2.63,27.71-7.9,19-6.66,29.3-5.31,27.42,1.36,47.21,6.63,44.86,11.85,56.73,11.85,26.38,6.59,50.13,4,47.49-2.64,67.28-7.91,59.37-10.54,59.37-10.54V654.43h-591Z"/><path class="cls-25" d="M-19.11,402.52s13.85,4.94,18.8,4,7.92-1,10.88,3.95,8.91,10.87,8.91,10.87,12.86,4.94,16.82,6.91,16.16,9.92,16.16,9.92S62,440.06,67,447s23.75,17.79,23.75,17.79,21.77,6.91,29.68,11.85,27.7,15.81,27.7,15.81l21.77,5.92,22.76,13.83s16.82,5.93,24.73,5.93,29.69-1,29.69-1,9.89,8.89,16.82,9.88,22.75,4.94,22.75,4.94l26.72,12.84s39.57-2,49.47-3.95,8.9-2,20.78-6.91S405.35,528,415.25,526s20.78-1,25.72-4,12.86-8.89,21.77-7.9,23.75,0,36.61-7.9,45.51-23.71,59.36-29.64S625,458.83,625,458.83,656.67,446,663.59,443s24.74-7.9,32.65-8.89a298.19,298.19,0,0,0,38.59-7.9c13.85-4,39.58-13.83,39.58-13.83l22.75-1,16.82-3,23.75-1s39.58-1,42.54-3a53.82,53.82,0,0,1,7.92-4l19.79-4,29.68-13.83,53.43-6.91s32.65,2,45.51,0S1093,363,1093,363l54.42-4s72.23,10.87,94,10.87,67.28-2,67.28-2,35.62,2,49.47-9.87,22.76-16.8,44.53-22.73,42.54-3,42.54-3l27.71,8.89,118.73,1,68.27-15.81s25.81-4.66,51,2.12,39,13.69,61.79,16.65,45.51-4,54.42-1,35.42,19.3,58.17,23.25,57.59-.53,62.54,1.44S1936,409.44,1936,409.44V623.8H-21.09Z"/><path class="cls-26" d="M-14.49,466.07s31.66,11.86,39.58,13.17,33,14.49,33,14.49a136.22,136.22,0,0,1,18.47,1.32c7.91,1.32,11.87,1.32,15.83,5.27s13.19,7.9,13.19,7.9,9.23,1.32,14.51,2.64a110.08,110.08,0,0,1,11.87,3.95l14.52-2.64L162,525l12.21,3,21.11,5.27s17.15,7.9,22.42,7.9h47.5L295.53,553l31.66,6.58s22.52,8.61,31.66,11.86,34.3,1.31,34.3,1.31,96.3-7.9,120.05-13.17,31.66-5.27,47.49-7.9,26.39-1.32,36.94-4,22.43-9.22,31.66-9.22,14.51,1.31,18.47-1.32S659.63,528,659.63,528a23.41,23.41,0,0,0,21.11,3.95l15.83-22.39,1.32,13.17,11.87-4s14.52-7.9,19.79-7.9,13.2,6.58,13.2,6.58l9.23-1.31,18.47-6.59,18.47-1.32s73.87-4,91-10.53,40.9-18.45,48.82-21.08,17.15-13.17,17.15-13.17l9.23-2.64,9.24,2.64,15.83-5.27h11.87s11.87-11.85,15.83-11.85,9.23,6.58,9.23,6.58l10.56,1.32,19.79-2.64,33,4s10.55,2.63,14.51-1.32l9.23-9.22,9.24,7.9,9.23-15.8,7.92,9.22,9.23-4c6.6-3.95,2.64-17.12,10.56-14.48s10.55,6.58,10.55,6.58l10.55-5.27c5.28-6.58,5.7-18,9.24-15.8,10.55,6.58,17.15-3.95,17.15-3.95s9.23-13.18,14.51-7.91l13.19,13.17,22.43-2.63s66,2.63,76.51,1.32S1340.35,416,1347,416s17.15,1.32,17.15,1.32,7.92-6.59,13.19-6.59,6.6,2.64,10.56,6.59,14.51,2.63,14.51,2.63a187.47,187.47,0,0,0,19.79,1.32c9.23,0,26.38,2.63,26.38,2.63h19.79s9.23-15.8,15.83-11.85,1.32,9.22,6.6,10.54,15.83,2.63,15.83,2.63l24.33,2.45s22.2-1.84,29-.65,20.53.84,25.81-1.8l15.83-7.9,15.83,5.27s10.56,3.95,14.51,2.63,6.6-1.32,13.2-5.27,9.23-13.17,14.51-10.53l10.55,5.26s11.87,7.91,22.43,5.27,19.79-14.49,29-15.8,27.7-2.64,27.7-2.64,10.56,2.64,14.52,4,14.51-1.31,14.51-1.31l17.15-3.95,13.19,3.95,10.55-3.95c10.56-1.32,15.83-2.64,21.11-1.32s6.6,4,15.83,1.32a69.62,69.62,0,0,0,17.15-7.91s1.32,2.64,10.56,5.27,10.55,0,17.15-1.32,17.15-1.31,21.1-1.31S1934,413.39,1934,413.39l10.55,227.87H-13.17Z"/></g></g></g></g></svg>