<svg xmlns="http://www.w3.org/2000/svg" xmlns:xlink="http://www.w3.org/1999/xlink" viewBox="0 0 1920 1080"><defs><style>.cls-1{fill:none;}.cls-2{isolation:isolate;}.cls-3{clip-path:url(#clip-path);}.cls-4,.cls-6{opacity:0.25;}.cls-4,.cls-5,.cls-6,.cls-7{mix-blend-mode:overlay;}.cls-4{fill:url(#linear-gradient);}.cls-5,.cls-7{opacity:0.15;}.cls-5{fill:url(#linear-gradient-2);}.cls-6{fill:url(#linear-gradient-3);}.cls-7{fill:url(#linear-gradient-4);}.cls-8{opacity:0.8;mix-blend-mode:screen;}.cls-9{fill:#fff;}.cls-10{fill:url(#linear-gradient-5);}.cls-11{fill:url(#linear-gradient-6);}.cls-12{fill:url(#linear-gradient-7);}.cls-13{fill:url(#linear-gradient-8);}.cls-14{fill:url(#linear-gradient-9);}.cls-15{fill:url(#linear-gradient-10);}.cls-16{fill:url(#linear-gradient-11);}</style><clipPath id="clip-path"><rect class="cls-1" x="3" y="-196" width="1917" height="1276"/></clipPath><linearGradient id="linear-gradient" x1="1936.15" y1="490.14" x2="39.62" y2="6.37" gradientUnits="userSpaceOnUse"><stop offset="0" stop-color="#fff"/><stop offset="1" stop-color="#fff"/></linearGradient><linearGradient id="linear-gradient-2" x1="1871.17" y1="120.01" x2="732.81" y2="-170.37" xlink:href="#linear-gradient"/><linearGradient id="linear-gradient-3" x1="1939.16" y1="819.66" x2="86.04" y2="346.95" xlink:href="#linear-gradient"/><linearGradient id="linear-gradient-4" x1="1201.24" y1="901.54" x2="-89.22" y2="572.36" xlink:href="#linear-gradient"/><linearGradient id="linear-gradient-5" x1="1683.91" y1="101.17" x2="998.12" y2="-328.76" gradientUnits="userSpaceOnUse"><stop offset="0" stop-color="#d8eafa"/><stop offset="0.62" stop-color="#9fddf5"/><stop offset="1" stop-color="#7ad9f5"/></linearGradient><linearGradient id="linear-gradient-6" x1="1623.3" y1="412.61" x2="1078.51" y2="254.31" xlink:href="#linear-gradient-5"/><linearGradient id="linear-gradient-7" x1="843.96" y1="214.1" x2="-66.07" y2="-225.09" xlink:href="#linear-gradient-5"/><linearGradient id="linear-gradient-8" x1="1771.07" y1="677.34" x2="1350.68" y2="602.19" xlink:href="#linear-gradient-5"/><linearGradient id="linear-gradient-9" x1="960.52" y1="177.19" x2="739.6" y2="65.09" xlink:href="#linear-gradient-5"/><linearGradient id="linear-gradient-10" x1="498.91" y1="128.71" x2="154.67" y2="-30.88" xlink:href="#linear-gradient-5"/><linearGradient id="linear-gradient-11" x1="532.73" y1="555.38" x2="-172.63" y2="315.97" xlink:href="#linear-gradient-5"/></defs><title>NRC</title><g class="cls-2"><g id="Layer_1" data-name="Layer 1"><g id="Sky"><g class="cls-3"><path class="cls-4" d="M-105.18-92.52S197.59,58.62,248.05,79.37s276,83,335.41,115.58S1123.68,328.31,1203.83,352s336.4,42.48,399.72,52.36,345.31,15.8,345.31,15.8l14.84,41.5S1678.75,432,1625.32,432s-388.84-59.27-430.4-68.16S610.17,215.7,574.55,212.73,268.82,138.64,200.55,109-102.21-33.25-102.21-33.25Z"/><path class="cls-5" d="M651.73-252.56S868.41-131,990.11-71.78A2940,2940,0,0,0,1328.49,67.51c103.89,35.57,124.67,41.5,252.3,71.13s181.07,32.6,192.94,35.56,92,14.82,92,14.82-249.34-55.38-292.87-65.2c-61.35-13.83-324.53-112.61-370-132.37C1154.6-29.49,984.17-125.12,948.56-151.79S815-243.66,815-243.66Z"/><path class="cls-6" d="M-84.4,363.88S372.71,550.58,912.94,601,1573,656.14,1637.2,667.58s335.4,19.33,335.4,19.33l8.91,44.45s-715.35-65.2-819.24-59.27-649-104-792-118.67S-93.3,423.15-93.3,423.15Z"/><path class="cls-7" d="M-203.13,565.4S625,758,788.27,784.71s445.24,44.45,445.24,44.45-397.75,3-472,3S-200.16,624.67-200.16,624.67Z"/><g class="cls-8"><path class="cls-9" d="M227.27,168c-4.2,0-4.21,6.52,0,6.52S231.48,168,227.27,168Z"/><path class="cls-9" d="M114,90a1.77,1.77,0,0,0-1.18-.49l-1.37-.06-1.2-.06a2.29,2.29,0,0,0-.28-.07,1.85,1.85,0,0,0-1,.25l0,0a1.9,1.9,0,0,0-.66.66,1.84,1.84,0,0,0-.25.92,1.91,1.91,0,0,0,.25.93,2.08,2.08,0,0,0,.66.66l0,0a2,2,0,0,0,1,.25,1.29,1.29,0,0,0,.28-.08l1.2-.05,1.37-.06a1.77,1.77,0,0,0,1.18-.49,1.71,1.71,0,0,0,.49-1.19A1.64,1.64,0,0,0,114,90Z"/><path class="cls-9" d="M131.34,49.18c-.07-.49-.15-1-.22-1.46L131,47a2.72,2.72,0,0,0-.43-1,1.48,1.48,0,0,0-2.53,0,2.72,2.72,0,0,0-.43,1c0,.24-.07.48-.11.72-.07.49-.14,1-.22,1.46a2.07,2.07,0,0,0,.54,2,2.09,2.09,0,0,0,3,0,2.07,2.07,0,0,0,.54-2Z"/><path class="cls-9" d="M67,69.16a1.32,1.32,0,0,0,0,2.63A1.32,1.32,0,0,0,67,69.16Z"/><path class="cls-9" d="M1013.86,15.37a1.77,1.77,0,0,0,0,3.53A1.77,1.77,0,0,0,1013.86,15.37Z"/><path class="cls-9" d="M62.55,205.3a1.7,1.7,0,0,0-.68-.44,1.67,1.67,0,0,0-.82-.18,2.23,2.23,0,0,0-1.51.62,2.14,2.14,0,0,0-.62,1.5c0,.19,0,.38.08.57a1.48,1.48,0,0,0,.38.72,1.5,1.5,0,0,0,.5.47l.09,1.21a1.13,1.13,0,0,0,.31.76,1.06,1.06,0,0,0,.77.31,1.09,1.09,0,0,0,1.07-1.07l.09-1.2.34-.26a2.37,2.37,0,0,0,.62-1.51A2.18,2.18,0,0,0,62.55,205.3Z"/></g><path class="cls-10" d="M824.22-262.76S1111.81-131,1172.49-103.39l-88.38-22.39S1205.47-86.26,1260.88-56,1370.38.67,1420.51,19.11s147.75,42.15,147.75,42.15L1457.45,16.47s205.8,58,237.46,71.13A644.17,644.17,0,0,0,1759.55,110s-33-29-44.85-35.56-43.54-5.27-48.82-23.71,9.24-48.73-18.47-65.86-51.44-19.75-58-7.9-5.28,32.93-5.28,32.93-5.27-26.34-21.11-25A49.77,49.77,0,0,0,1536.6-4.6s21.11-63.22,0-77.71S1483.83-81,1483.83-81s29-38.19,17.15-75.07-38.26-73.76-80.47-61.91-51.45,52.69-51.45,52.69,48.81-72.45-67.28-90.89-122.69,18.44-145.12,23.71-52.77-32.93-73.87-23.71-38.26,38.2-38.26,38.2-36.94-5.27-72.56-13.17S824.22-262.76,824.22-262.76Z"/><path class="cls-11" d="M1227.57,336.22s74.21,19.75,113.78,27.66,125.66,25.68,166.23,35.56,132.58,16.79,132.58,16.79-27.7-10.86-36.61-11.85-7.91,0-23.75-6.92-20.77-12.84-36.6-10.86-28.7-15.81-38.59-15.81-15.83,3-15.83,3-9.9-56.3-39.58-46.43-26.71,37.54-26.71,37.54S1403.69,351,1392.8,355a145.26,145.26,0,0,1-23.74,5.93s-15.83-18.77-31.66-16.79-17.81,3-25.73,2S1236.48,338.19,1227.57,336.22Z"/><path class="cls-12" d="M-67.58-127.1s138.52,80,219.65,112.62l-36.61-5.93S274.76,66.53,351.94,88.26s136.54,40.5,165.23,52.36,182.05,59.27,212.72,74.09,159.3,38.52,159.3,38.52S835.76,235.45,815,214.71s-19.78-37.54-36.61-41.49a49.55,49.55,0,0,0-29.68,2s11.88-36.55-17.81-39.51-34.63,10.86-34.63,10.86-3-19.75-12.86-16.79-13.85,5.93-13.85,5.93,13.85-16.8-9.9-24.7S624,105.05,624,105.05,635.9-27.32,564.66-12.5s-43.53,65.2-43.53,65.2-5-16.8-19.79-16.8-19.79,4.94-22.76,4-1-18.77-15.83-19.75S439,25,439,25s-3.95-12.85-11.87-11.86c0,0,20.78-51.37-20.78-58.28s-49.47,11.85-49.47,11.85,34.63-131.39-68.27-130.4S236.17-58.93,236.17-58.93s-22.75-23.71-38.58-19.76S171.86-57.94,164.93-61.9,157-90.54,138.22-88.57s-21.77,6.92-21.77,6.92,0-22.73-9.89-25.69-20.78,0-20.78,0,5-48.4-34.63-66.19S-9.2-194.27-25-157.72s-28.7,6.92-46.51,7.9S-119-158.71-119-158.71Z"/><path class="cls-13" d="M1347.65,634.14s295.73,63.67,522,76.12c0,0-22.08-5.68-30.14-9.56s-12.38-12.29-31.25-10.78-26,3.53-31.52-4.93-7.32-20.28-23.85-18.67a64.27,64.27,0,0,0-28.68,10.45s3.43-50.31-26.16-45.76-36.87,35.91-36.87,35.91-21.33-47.66-47.71-35.93-13,27.35-14.37,30.81-19.47-11.43-29.06-7.17a95.12,95.12,0,0,0-16.9,9.81s-14.74-38.21-38.52-32.23-24.25,16.52-32.46,16.15-10.84-20.43-26.41-14.09a95.39,95.39,0,0,1-28.52,7Z"/><path class="cls-14" d="M723.3,71.8s81.79,44.78,131.92,61.9,73.88,22.39,91.69,27c0,0-14.52-9.22-25.73-11.85s-19.79-3.95-34.3-13.83-19.79-18.44-27-14.49-8.58,5.93-8.58,5.93-3.3-11.86-11.21-12.52-11.21,2-11.21,2-4-6.59-6.6-6.59-8.58.66-8.58.66-3.95-32.27-16.49-29.63S783.32,95.5,783.32,95.5,772.11,83,766.83,85s-20.45-4.61-20.45-4.61Z"/><path class="cls-15" d="M101.61.34S347,113,556.75,169.27c0,0-21.77-16.8-35.62-27.67s-10.89-18.76-20.78-18.76-14.84,0-19.79-7.91-18.8-3-18.8-3-9.89-10.87-12.86-10.87-6.93,2-6.93,2,5.94-40.5-17.81-62.24S374.69,32,367.77,45.78s-4,46.43-4,46.43-3-27.66-15.83-24.7-17.81,10.87-17.81,10.87-2-11.85-6.93-11.85-13.85,2-13.85,2S343-6.58,294.55-6.58,251,22.07,251,22.07s-14.84-10.86-17.81-3.95-3.95,18.77-3.95,18.77-10.89-23.71-28.7-20.74-14.84,4.93-20.77,5.92S168.89,8.24,160,11.21s-13.85,2-13.85,2Z"/><path class="cls-16" d="M348,524.9c-.21-.23-.4-.46-.6-.69,85.05,18.65,179.63,36.58,282.91,52.06,0,0-50.13-26.35-73.87-29s-27.71,0-38.26-6.59-13.19-25-39.58-22.39-31.66,11.86-38.26,4-9.23-17.12-21.1-15.8-17.15,7.9-17.15,7.9-4-17.12-19.79-22.39-26.39-4-26.39-4-9.23-84.3-69.92-80.35-34.3,60.59-34.3,60.59-21.1-31.61-33-25-13.19,14.49-13.19,14.49-5.28-14.49-13.19-15.8-17.15-2.64-17.15-2.64S164.61,348.4,125,357.62c-36.94,8.61-23.32,57.36-21.34,63.82-1.43-4.34-9.84-26.81-30.11-25.62-22.43,1.31-27.71,7.9-27.71,7.9S53.79,384,38,381.33,11.58,380,11.58,380s25.06-54-54.09-60.59-72.56,36.88-84.43,36.88-19.79-27.66-42.22-14.49-55.41-1.31-55.41-1.31,44.86,25,67.28,32.93c0,0,70.57,30.81,200.11,70.93A279.73,279.73,0,0,1-18.11,437s242.41,84,428.42,113.6c0,0-14.84-12.84-31.66-17.78S357.87,535.77,348,524.9Z"/></g></g></g></g></svg>