<svg xmlns="http://www.w3.org/2000/svg" xmlns:xlink="http://www.w3.org/1999/xlink" viewBox="0 0 1920 1080"><defs><style>.cls-1{fill:none;}.cls-2{isolation:isolate;}.cls-3{clip-path:url(#clip-path);}.cls-4,.cls-5,.cls-6{opacity:0.25;}.cls-4,.cls-5,.cls-6,.cls-7{mix-blend-mode:overlay;}.cls-4{fill:url(#linear-gradient);}.cls-5{fill:url(#linear-gradient-2);}.cls-6{fill:url(#linear-gradient-3);}.cls-7{opacity:0.15;fill:url(#linear-gradient-4);}.cls-8{fill:url(#linear-gradient-5);}.cls-9{fill:url(#linear-gradient-6);}.cls-10{clip-path:url(#clip-path-2);}.cls-11{fill:url(#linear-gradient-7);}.cls-12,.cls-13,.cls-17,.cls-18{opacity:0.55;mix-blend-mode:multiply;}.cls-12{fill:url(#linear-gradient-8);}.cls-14{fill:url(#linear-gradient-9);}.cls-15{fill:url(#linear-gradient-10);}.cls-16{fill:url(#linear-gradient-11);}.cls-17{fill:url(#linear-gradient-12);}.cls-18{fill:url(#linear-gradient-13);}.cls-19{fill:url(#linear-gradient-14);}.cls-20{fill:url(#linear-gradient-15);}.cls-21{fill:url(#linear-gradient-16);}.cls-22{fill:url(#linear-gradient-17);}.cls-23{fill:url(#linear-gradient-18);}.cls-24{fill:url(#linear-gradient-19);}.cls-25{fill:url(#linear-gradient-20);}.cls-26{fill:url(#linear-gradient-21);}.cls-27{fill:url(#linear-gradient-22);}.cls-28{fill:url(#linear-gradient-23);}.cls-29{fill:url(#linear-gradient-24);}.cls-30{fill:url(#linear-gradient-25);}.cls-31{fill:url(#linear-gradient-26);}.cls-32{fill:url(#linear-gradient-27);}.cls-33{fill:url(#linear-gradient-28);}.cls-34{fill:url(#linear-gradient-29);}.cls-35{fill:url(#linear-gradient-30);}.cls-36{fill:url(#linear-gradient-31);}.cls-37{fill:url(#linear-gradient-32);}.cls-38{fill:url(#linear-gradient-33);}.cls-39{clip-path:url(#clip-path-3);}.cls-40{opacity:0.76;mix-blend-mode:screen;fill:url(#radial-gradient);}</style><clipPath id="clip-path"><rect class="cls-1" x="2013" y="-196" width="1917" height="1276"/></clipPath><linearGradient id="linear-gradient" x1="3964.94" y1="1203.7" x2="2013.95" y2="706.03" gradientUnits="userSpaceOnUse"><stop offset="0" stop-color="#fff"/><stop offset="1" stop-color="#fff"/></linearGradient><linearGradient id="linear-gradient-2" x1="3946.15" y1="490.14" x2="2049.62" y2="6.37" xlink:href="#linear-gradient"/><linearGradient id="linear-gradient-3" x1="3949.16" y1="819.66" x2="2096.04" y2="346.95" xlink:href="#linear-gradient"/><linearGradient id="linear-gradient-4" x1="3211.24" y1="901.54" x2="1920.78" y2="572.36" xlink:href="#linear-gradient"/><linearGradient id="linear-gradient-5" x1="2853.96" y1="214.1" x2="1943.93" y2="-225.09" gradientUnits="userSpaceOnUse"><stop offset="0" stop-color="#d8eafa"/><stop offset="0.62" stop-color="#9fddf5"/><stop offset="1" stop-color="#7ad9f5"/></linearGradient><linearGradient id="linear-gradient-6" x1="2542.73" y1="555.38" x2="1837.37" y2="315.97" xlink:href="#linear-gradient-5"/><clipPath id="clip-path-2"><rect class="cls-1" x="3" y="-196" width="1917" height="1276"/></clipPath><linearGradient id="linear-gradient-7" x1="1395.13" y1="1017.41" x2="1263.54" y2="1151.97" gradientUnits="userSpaceOnUse"><stop offset="0" stop-color="#277ca0"/><stop offset="1" stop-color="#00518e"/></linearGradient><linearGradient id="linear-gradient-8" x1="1602.78" y1="1040.42" x2="1460.59" y2="1087.48" xlink:href="#linear-gradient-7"/><linearGradient id="linear-gradient-9" x1="1308.57" y1="1058.32" x2="1201.71" y2="1123.62" gradientUnits="userSpaceOnUse"><stop offset="0" stop-color="#277ca0" stop-opacity="0"/><stop offset="1" stop-color="#00518e"/></linearGradient><linearGradient id="linear-gradient-10" x1="1297.8" y1="1040.76" x2="1190.96" y2="1106.05" xlink:href="#linear-gradient-9"/><linearGradient id="linear-gradient-11" x1="886.27" y1="1016.16" x2="507.65" y2="1141.49" xlink:href="#linear-gradient-7"/><linearGradient id="linear-gradient-12" x1="943.79" y1="1031.38" x2="553.3" y2="1107.9" xlink:href="#linear-gradient-9"/><linearGradient id="linear-gradient-13" x1="888.35" y1="1053.31" x2="639.88" y2="1101.99" xlink:href="#linear-gradient-9"/><linearGradient id="linear-gradient-14" x1="1575.8" y1="1084.57" x2="1731.37" y2="505.78" gradientUnits="userSpaceOnUse"><stop offset="0" stop-color="#000e45"/><stop offset="1" stop-color="#19235b"/></linearGradient><linearGradient id="linear-gradient-15" x1="1730.65" y1="1091.13" x2="1848.7" y2="651.94" xlink:href="#linear-gradient-14"/><linearGradient id="linear-gradient-16" x1="-1405.27" y1="1047.6" x2="-1287.24" y2="608.47" gradientTransform="matrix(-1, 0, 0, 1, 320.19, 0)" xlink:href="#linear-gradient-14"/><linearGradient id="linear-gradient-17" x1="-1462.67" y1="1032.16" x2="-1344.66" y2="593.11" gradientTransform="matrix(-1, 0, 0, 1, 320.19, 0)" xlink:href="#linear-gradient-14"/><linearGradient id="linear-gradient-18" x1="-1582.01" y1="1000.07" x2="-1464.04" y2="561.19" gradientTransform="matrix(-1, 0, 0, 1, 320.19, 0)" xlink:href="#linear-gradient-14"/><linearGradient id="linear-gradient-19" x1="-1498.65" y1="1022.48" x2="-1380.65" y2="583.48" gradientTransform="matrix(-1, 0, 0, 1, 320.19, 0)" xlink:href="#linear-gradient-14"/><linearGradient id="linear-gradient-20" x1="-1531.79" y1="1013.57" x2="-1413.8" y2="574.61" gradientTransform="matrix(-1, 0, 0, 1, 320.19, 0)" xlink:href="#linear-gradient-14"/><linearGradient id="linear-gradient-21" x1="-1419.11" y1="1043.87" x2="-1301.08" y2="604.75" gradientTransform="matrix(-1, 0, 0, 1, 320.19, 0)" xlink:href="#linear-gradient-14"/><linearGradient id="linear-gradient-22" x1="-1350.11" y1="1062.43" x2="-1232.04" y2="623.17" gradientTransform="matrix(-1, 0, 0, 1, 320.19, 0)" xlink:href="#linear-gradient-14"/><linearGradient id="linear-gradient-23" x1="-1363.53" y1="1058.81" x2="-1245.49" y2="619.64" gradientTransform="matrix(-1, 0, 0, 1, 320.19, 0)" xlink:href="#linear-gradient-14"/><linearGradient id="linear-gradient-24" x1="-1366.86" y1="1057.91" x2="-1248.79" y2="618.65" gradientTransform="matrix(-1, 0, 0, 1, 320.19, 0)" xlink:href="#linear-gradient-14"/><linearGradient id="linear-gradient-25" x1="1766.56" y1="1100.71" x2="1884.56" y2="661.73" xlink:href="#linear-gradient-14"/><linearGradient id="linear-gradient-26" x1="1676.74" y1="1076.57" x2="1794.72" y2="637.66" xlink:href="#linear-gradient-14"/><linearGradient id="linear-gradient-27" x1="1581.4" y1="1050.94" x2="1699.34" y2="612.13" xlink:href="#linear-gradient-14"/><linearGradient id="linear-gradient-28" x1="135.8" y1="1120.9" x2="274.32" y2="895.81" xlink:href="#linear-gradient-14"/><linearGradient id="linear-gradient-29" x1="41.68" y1="1062.99" x2="180.01" y2="838.19" xlink:href="#linear-gradient-14"/><linearGradient id="linear-gradient-30" x1="27.49" y1="1054.26" x2="165.8" y2="829.5" xlink:href="#linear-gradient-14"/><linearGradient id="linear-gradient-31" x1="141.35" y1="1124.33" x2="279.78" y2="899.39" xlink:href="#linear-gradient-14"/><linearGradient id="linear-gradient-32" x1="40.32" y1="1062.19" x2="178.71" y2="837.3" xlink:href="#linear-gradient-14"/><linearGradient id="linear-gradient-33" x1="115.24" y1="1108.23" x2="253.61" y2="883.38" xlink:href="#linear-gradient-14"/><clipPath id="clip-path-3"><rect class="cls-1" x="-2011" y="-1676" width="1917" height="1276"/></clipPath><radialGradient id="radial-gradient" cx="-130.54" cy="-570.26" r="1097.33" gradientTransform="translate(53.69 -272.68) scale(0.88 0.68)" gradientUnits="userSpaceOnUse"><stop offset="0" stop-color="#b3fff4"/><stop offset="1"/></radialGradient></defs><title>NRC</title><g class="cls-2"><g id="Layer_1" data-name="Layer 1"><g id="Sky"><g class="cls-3"><path class="cls-4" d="M1887,518s614.43,166,843,198.57,768.78,80,866.73,77.05,374-8.89,374-8.89l26.72,373.41-2057-50.38Z"/><path class="cls-5" d="M1904.82-92.52S2207.59,58.62,2258.05,79.37s276,83,335.41,115.58S3133.68,328.31,3213.83,352s336.4,42.48,399.72,52.36,345.31,15.8,345.31,15.8l14.84,41.5S3688.75,432,3635.32,432s-388.84-59.27-430.4-68.16S2620.17,215.7,2584.55,212.73s-305.73-74.09-374-103.72S1907.79-33.25,1907.79-33.25Z"/><path class="cls-6" d="M1925.6,363.88S2382.71,550.58,2922.94,601,3583,656.14,3647.2,667.58s335.4,19.33,335.4,19.33l8.91,44.45s-715.35-65.2-819.24-59.27-649-104-792-118.67S1916.7,423.15,1916.7,423.15Z"/><path class="cls-7" d="M1806.87,565.4S2635,758,2798.27,784.71s445.24,44.45,445.24,44.45-397.75,3-472,3-961.71-207.46-961.71-207.46Z"/><path class="cls-8" d="M1942.42-127.1s138.52,80,219.65,112.62l-36.61-5.93s159.3,86.94,236.48,108.67,136.54,40.5,165.23,52.36,182,59.27,212.72,74.09,159.3,38.52,159.3,38.52-53.43-17.78-74.21-38.52-19.78-37.54-36.61-41.49a49.55,49.55,0,0,0-29.68,2s11.88-36.55-17.81-39.51-34.63,10.86-34.63,10.86-3-19.75-12.86-16.79-13.85,5.93-13.85,5.93,13.85-16.8-9.9-24.7-35.61-5.93-35.61-5.93S2645.9-27.32,2574.66-12.5s-43.53,65.2-43.53,65.2-5-16.8-19.79-16.8-19.79,4.94-22.76,4-1-18.77-15.83-19.75S2449,25,2449,25s-3.95-12.85-11.87-11.86c0,0,20.78-51.37-20.78-58.28s-49.47,11.85-49.47,11.85,34.63-131.39-68.27-130.4-52.44,104.72-52.44,104.72-22.75-23.71-38.58-19.76-25.73,20.75-32.66,16.79-7.91-28.64-26.71-26.67-21.77,6.92-21.77,6.92,0-22.73-9.89-25.69-20.78,0-20.78,0,4.95-48.4-34.63-66.19-60.35-20.74-76.18,15.81-28.7,6.92-46.51,7.9-47.49-8.89-47.49-8.89Z"/><path class="cls-9" d="M2358,524.9c-.21-.23-.4-.46-.6-.69,85,18.65,179.63,36.58,282.91,52.06,0,0-50.13-26.35-73.87-29s-27.71,0-38.26-6.59-13.19-25-39.58-22.39-31.66,11.86-38.26,4-9.23-17.12-21.1-15.8-17.15,7.9-17.15,7.9-4-17.12-19.79-22.39-26.39-4-26.39-4-9.23-84.3-69.92-80.35-34.3,60.59-34.3,60.59-21.1-31.61-33-25-13.19,14.49-13.19,14.49-5.28-14.49-13.19-15.8-17.15-2.64-17.15-2.64-10.55-90.88-50.13-81.66c-36.94,8.61-23.32,57.36-21.34,63.82-1.43-4.34-9.84-26.81-30.11-25.62-22.43,1.31-27.71,7.9-27.71,7.9s7.92-19.76-7.91-22.39-26.38-1.32-26.38-1.32,25.06-54-54.09-60.59-72.56,36.88-84.43,36.88-19.79-27.66-42.22-14.49-55.41-1.31-55.41-1.31,44.86,25,67.28,32.93c0,0,70.57,30.81,200.11,70.93a279.73,279.73,0,0,1-60.93-7.38s242.41,84,428.42,113.6c0,0-14.84-12.84-31.66-17.78S2367.87,535.77,2358,524.9Z"/></g></g><g id="Grass"><g class="cls-10"><path class="cls-11" d="M1648.4,1070.2l-245.91,16-48.7,3.19-148.09,1.3-118.93-4.85-61-2.47s58-19.75,91-35.55,50.12-19.75,92.35-18.45l4.5.15c-9.59-8.32-15.26-17-18.51-24.7-18.94-.36-25.28-8-27.17-11.56-5.37,0-9.68-2.12-9.68-4.7s4.34-4.67,9.68-4.67,9.72,2.09,9.72,4.67c0,2.3-3.4,4.19-7.88,4.6,5.8,8.39,19.68,9.67,24.62,9.85a52.11,52.11,0,0,1-3.61-19.27c-6.21-.33-11-2.94-11-6.15,0-3.45,5.52-6.25,12.35-6.25s12.34,2.8,12.34,6.25-5.26,6.07-11.86,6.2c.56,11.84,5.42,22,11.25,29.91a21.73,21.73,0,0,0,12.86-10.26c-6.42-.38-11.35-2.65-11.35-5.41,0-3,5.93-5.46,13.26-5.46s13.27,2.45,13.27,5.46-5.93,5.46-13.27,5.46h-.64c-2.65,7.22-9.66,11.36-12.24,12.68a86.41,86.41,0,0,0,13.73,13.58c34.94,1.43,51.75,4.26,80.69,11.49,31.67,7.88,69.93,12.17,69.93,12.17s45.22-10,75.79-17.79c-4.32-11.51-5.73-24.35-6.16-31.62-7.26-.1-13.06-2.75-13.06-6s6.05-6,13.52-6,13.52,2.68,13.52,6-5.5,5.72-12.42,6a98.33,98.33,0,0,0,8.35,30.67c2.66-.69,5.19-1.35,7.52-2a110.93,110.93,0,0,1,12.42-2.63,34.15,34.15,0,0,0,1.84-7.12c-6.77-.25-12.11-2.55-12.11-5.38,0-3,6-5.44,13.29-5.44s13.26,2.43,13.26,5.44-5.88,5.38-13.14,5.41a58.79,58.79,0,0,1-1,6.79c19.84-2.56,33,2.27,56.69,2.27,29,0,42.23,5.28,58.05,11.86S1648.4,1070.2,1648.4,1070.2Z"/><path class="cls-12" d="M1625.35,1060.36c-8.67-3.7-18.38-7.83-26.5-11.26-12-2.53-27.12-5.78-37.18-8.2-19.13-4.61-31,1.64-56.07.33s-106.86,26.67-106.86,26.67l236.14,2Z"/><g class="cls-13"><path class="cls-14" d="M1435.69,1088.65l-81.9.74-148.09,1.3-118.93-4.85c27.5-8.14,76.88-21.56,103.54-21.56,2,0,4,0,5.93,0v0c0-5.64,12.12-10.21,27-10.21s27,4.57,27,10.21c0,1.66-1.08,3.22-2.94,4.59,16.61.11,62.31,1,90,7.91,18,4.52,44.27,7.56,65.1,9.42C1421.3,1087.91,1435.69,1088.65,1435.69,1088.65Z"/><path class="cls-15" d="M1274.4,1059c4.38,0,7.92-1.77,7.92-4s-3.54-4-7.92-4-7.91,1.77-7.91,4S1270,1059,1274.4,1059Z"/></g><path class="cls-16" d="M344,1092.6s308.7-25,350.91-27.66,135.88-4,164.91-4,48.81,9.22,59.36,11.86,51.45,18.44,51.45,18.44Z"/><path class="cls-17" d="M925,1091.37c-11.39-4.9-26-10.39-40.11-13.26-29-5.93-47.49-5.27-87.07-2.64s-141.81,0-206.46-2c-2.28-.07-4.73-.12-7.28-.14C480.25,1081.55,344,1092.6,344,1092.6Z"/><path class="cls-18" d="M506.72,1092.25l369.68-.77c-20.15-7.59-58.34-21.18-77.25-22.59-26.38-2-134.56,10.53-176.77,11.19C594.57,1080.52,540.44,1087.52,506.72,1092.25Z"/><path class="cls-19" d="M1198.88,1102.94s109.49-24.83,124-32.74,23.74-17.12,42.21-18.44,56.73-2.63,63.32-4,14.51-9.22,42.22-9.22,62,9.22,92.34,10.54,55.41-17.12,73.88-26.34,31.66-18.44,58.05-23.71,64.64-18.44,113.45-19.76,108.18,0,108.18,0l25.06,10.54L1935,1132.11Z"/><path class="cls-20" d="M1859.84,959.53c-1.29-31.41-13.61-43.75-13.61-43.75S1838,933,1832.7,962.28c-.59,3.3-1,6.39-1.24,9.33a79.1,79.1,0,0,0-25-34.15c-1.32-19.76-4.53-27.68-4.53-27.68-12,15.29-17.77,34.85-20.5,51.89-3.61-20.51-9.55-32.39-9.55-32.39-8.82,15.41-11.68,38.06-12.54,54.13-1.2-1.78-2.49-3.61-3.86-5.47,2.27-19.15,3-44.24-5.38-62.16,0,0-10.28,13.49-14.24,41.07a73.55,73.55,0,0,0-23.31-13.32,351.89,351.89,0,0,0,21.82,38.34c.09,5.37.43,11.08,1.08,17.12-14.37-20-49-62.3-90.51-72,0,0,10.75,35.65,46.62,65.73-21.15-5.51-47.65-7.72-75.16,1.77,0,0,77.37,3.75,108.16,29.24l126.19-19.49s57.09-52.5,69.11-95.25C1919.84,909,1884.87,928.32,1859.84,959.53Z"/><path class="cls-21" d="M1563.59,747l-21.83-5.38,13.11.81,12.68,2.12,9.51,5.68-.21-5.52,4,7.74,4.12,2.78,6.13,3.72-1.44-7.51,7.3,11.57,4.23,5.54-.24,0c42.51,31.57,120.63,98.64,209.78,218.61l-4.9,0c-.88-1.73-113.45-147.81-205.25-218.68l-14.79-1.64,1.78-4.59-6.39-5.53.24,9.85-4.93-12.23-11.27,9.4,6.71-13-17.26.41Z"/><path class="cls-22" d="M1664.9,682.3l-6-9.21-16.05-16.16L1659,668l7.32,11.54,5.83,8.28-1-10,4.88,12.26,3.11,5.79-2.65-20.51,5.09,25.07.89,1.66,6.65,11.33-5.33-20.79,7.76,20.07,1.94,8,4.62-3-.25,14-1.39-1.59c28.12,48.37,71.33,133,116.36,260.4l-3.28-2.35S1746.73,823,1695.79,729.3c-3.85-4.35-11.78-13.18-13.34-13.88-2.06-.94-17-8.06-17-8.06l11.23,2.31,9.5,5.45L1673,702.32l-12.67-5.25,16.86,5.52-6.76-6.22,1.92-1.91-7.75-6.37,2.9-1.75-20.58-6.82Z"/><path class="cls-23" d="M1900.28,755.53l3.66-7,10.39-12.65-10.82,9-4.46,8.75-3.61,6.32,0-7.24-2.67,9.1-1.83,4.36.51-14.87-2,18.29-.52,1.24-4,8.56,2.4-15.23-4.19,14.89-.85,5.82-3.5-1.82,1.12,10,.89-1.23c-16.84,36.51-42,100-65.61,194.21l2.18-1.9s33.78-122.43,63.88-192.93c2.46-3.37,7.54-10.22,8.6-10.83,1.42-.81,11.59-6.91,11.59-6.91l-7.88,2.41-6.43,4.54,8.62-10.06,8.71-4.61-11.69,5.09,4.42-4.91-1.5-1.23,5.11-5.09-2.2-1,14.27-6.27Z"/><path class="cls-24" d="M1742.9,650.14l-15-11.89,15,7.45-2.58-6.8-7.27-.4,8.08-1-1.36-3.67-7-5.6,7.83,4.18-7.18-20.56,9.26,20.91,1,2.37s.5,2.1,1.3,5.61c2.7,9.94,5.3,22.34,7.79,36.5,1.48,7.47,2.83,14.88,3.81,21.26,11.41,62.52,27.12,168.78,32.85,303.46l-5.84-2.05c.54-2.7-9.52-175.87-25.54-289.07,0,.66.06,1.29.07,1.86l-9.51-51.08-3.39,1.34-.46-6.91-7,9.89,5.69-12.76-5.7-3Z"/><path class="cls-25" d="M1790.45,997.12s14-124.49,21.81-212.46l-14.52-25,12.66,14.22,1.58-10.53-1.58-11.06-4.22-7.9,7.39,4.22-7.92-27.91,9,15.27L1812,722.82l4.22,2.63,1.58-31.07,4.22,31.07-3.69,16.85,5.28-3.16-4.22,10,15.82-10.53L1818.84,757l1.58,3.69-1.58,12.63,4.75-4.21-9.79,15.64c-3.5,66.26-10.13,174.33-18,215.91Z"/><path class="cls-26" d="M1618.76,826.08l13.22.54-18.25-14,18.41,10-1.43-1.11c1,.63,2,1.29,3,1.95l2.47,1.35,1.94,1.65c44.42,31,101.23,94.22,146.05,148.44l-3.62,1.29c-50-61.08-90.8-102.11-117.11-126.46l-11.64,7.49,7.08-7.23-8.13-7.27-10.19,15.16,7-17.75-23-6.13,19.49,1.95s-7.45-4.49-10.23-5.49S1618.76,826.08,1618.76,826.08Z"/><path class="cls-27" d="M1531.91,906.69l-21.38,4.14,11.86-4.61,12-3.29,10.68,1.13-2.44-4.77,6.62,5.2,4.77.77,6.89.78-4.32-6,11.14,7.21,6,3.15-.23.08c39,8.13,105.53,26.35,192.85,66.44-1.17,1.16-2.44,2.4-3.6,3.48-55.46-25.37-129.8-56.17-189.59-69.81l-13.68,4.57-.3-4.76-7.87-2.26,4.22,8.55-9.32-8.75-6.07,12.85.58-14.19-15,7.37Z"/><path class="cls-28" d="M1549.37,832.44l-9.58-5.17-21.64-6.42,19.31,1.92,11.85,6.56,9,4.43-5.64-8.23,10.07,8.33,5.46,3.57-12.07-16.57,16.36,19.36,1.56,1,11.17,6.7L1570.7,832.4,1587,846.16l5.48,6,2.59-4.78,6.47,12.33-2-.72c37.26,22.52,93.27,60.09,163.89,118.43l-3.52,1.86c-46.52-37.72-111-88.23-161.36-120.65-5.41-2-16.51-5.86-18.19-5.73-2.24.16-18.57,1-18.57,1l10.85-3.32,10.86.22L1565.91,846l-13.5,1.44,17.27-3.2-8.84-2.19.77-2.57-9.77-1.86,1.69-2.9-21.13,3.83Z"/><path class="cls-29" d="M1597,946.31l-6.32,2.86,8.81-1,7,8.68-2.66-6.84,4.59,2.17,5.32,10-2.24-10.77,6.26,1.84,9.48,7-4.13-6.61c23.21,7.34,54.4,16.44,87.75,25.88l6.06,1.7-6-1.84c-35.13-10.57-66.86-20.2-87.84-26.59l-10.92-5.88-14-10.43,9.54,9.55-3.93-.42-9.51-3.28,5.15,3.25-2.27-.68-17.69-3.28Zm120,34.85c2.12.65,4.24,1.27,6.39,1.92,6.94,2.09,14,4.18,21.06,6.33l.43-.48L1723.53,983C1721.32,982.37,1719.12,981.78,1716.94,981.16Z"/><path class="cls-30" d="M1847,759.73l8.28,17.4-6.85-21.68,3.14-.57L1848.4,750l5.14-6.28-7.72,3.14,3.15-18-5.72,16.54-1.71-1.14.28-6-3.14,6.28,1.72,6.84-3.43.86,4.29,2.68c0,.1,0,.22-.06.34l-14.52,7,9.43.86-5.43,6,7.72-.86-11.15,14.84,10.5-6.9c-6,39.41-16.81,125.32-13.53,217.59l1.94-.07c-3.35-94.38,8-182.1,13.94-220l2-2.29,5.43,15.12-2.86-17.68Z"/><path class="cls-31" d="M1774.25,979.14c-28-64-49.2-143.36-58.83-182.57l3.53,4.7-3.27-12.81,12.39,24.46L1722,795.2l-5.92-12.46,2.59-3.22-5.26-6.93,4.32-5.44L1710.2,770l-5.71-26.33,2.33,25.82-4.76-3,2,5.64-15.35-5.3L1707.79,778l-5.48,3.27,5.45.65-9.17,14.53,12.13-8.29,1.22,19.46,1.74-9.93c9.72,39.48,30.9,118.53,58.8,182.27Z"/><path class="cls-32" d="M1567.81,773.29l-1.25-3.15,21.78,9.19L1573,768.91l-10.74-2.14,4.6-2.76-6.75-1.22,4-5.52-7,2.76-.62-16.24-2.14,14.71-4.3-2.76-3.37-4.9v4.29L1523,741.65l22.71,17.15-20.56,1.53,20.25,1.23-3.07,6.74,6.14-3.37-.92,6.74,8.89-4.6.62,16.24.61-6.13,3.38,2.45.61-7,12.58,16.84-4.84-12.16c38.07,33.78,121.91,115.71,167,217.65l1.77-.79C1691.77,889.25,1604.51,805.49,1567.81,773.29Z"/><path class="cls-33" d="M-29,1019.93s24.73,3,36.61-2,37.27-4.85,45.84,0,34.19,11,34.19,11h31.29s29.55,10.62,37.28,15.56,33.65,3,33.65,3,37.18-2,44.71,1,19.06,10.37,34.07,11.11,13.61-1.07,38.06,4.28S342.13,1080,342.13,1080l41.47,7H-38.89Z"/><path class="cls-34" d="M139.41,893.68l4.43-2.43-10.36,10.37c-9.27,32.43-22.59,77.88-34.5,114.48-2.17,6.71-4.32,13.14-6.39,19.11l-5.06-1.71c1.5-4.34,3.17-9.08,4.9-14.14,11.51-33.25,27.53-80.1,39.88-118.13l-6.78-21.89,7.26,13.24,3.1-7.86.74-8.85L134.76,869l5,4.56-1.18-23L142.79,864l.3-10.67,2.82,2.78,6.74-23.76-2.27,24.81-5.85,12.38,4.65-1.51-5,7,14.11-5.36-15.92,11.39.56,3.11Z"/><path class="cls-35" d="M86.46,905.64l5.15,10.82L87.35,903l2-.35-2-3,3.2-3.9-4.8,1.95,2-11.17-3.55,10.29-1.07-.71.18-3.73-2,3.9,1.06,4.26-2.13.53,2.67,1.67,0,.21-9,4.33,5.86.53-3.38,3.72,4.8-.53-6.93,9.22,6.53-4.29c-3.74,24.5-10.45,77.9-8.41,135.25l1.2,0c-2.08-58.67,5-113.19,8.67-136.76l1.25-1.43,3.37,9.4-1.78-11Z"/><path class="cls-36" d="M272.53,980.63,262.36,978l2.14,8.68-5.34-7.15-4.65,6.56,1.53-5.79-4.55,2.37.41,3-9-1.1c-26.41,12-56.67,31-83.2,49.26h0q-7.32,5.06-14.21,10l-3-1.41c4.09-2.91,8.08-5.69,12-8.32,38.29-26,68.84-41.19,88.19-49.53l-.16,0,3.3-2.68,5.93-5.82-1.89,4.24,4.14-1.35,2.84-1.07,3.42-4-.89,3.25,6.41-2.05,7.82.54,7.88,1.33L267.8,977Z"/><path class="cls-37" d="M108.54,1013.9l-11.86,22.72-4.09-1.41-5.06-1.71-27-9.24s-18.33-19.75-15.33-36.06c0,0,14.82,14.35,20.78,29.66l3.45-21.74,5,22.22s7.42-18.27,22.27-25.18l-9.41,30.11a31.75,31.75,0,0,1,5.16-3.91A37.32,37.32,0,0,1,99,1016.1,33.05,33.05,0,0,1,108.54,1013.9Z"/><path class="cls-38" d="M191.15,1039.58,158.51,1050l-13-6.22-3-1.41-4.75-2.27s-3-16.28,1-24.68c0,0,5.93,1.48,7.42,14.8,0,0,2-16.79,16.81-26.15,0,0,1,13.42-8.46,30l-.92,1.59a54.12,54.12,0,0,1,6.11-1.84h0a58.46,58.46,0,0,1,20.06-1.58l-21.26,10.36Z"/></g></g><g id="Whole"><g class="cls-39"><ellipse class="cls-40" cx="-61.68" cy="-658.74" rx="969.81" ry="742.88"/></g></g></g></g></svg>